<svg width="1416" height="735" xmlns="http://www.w3.org/2000/svg"><g><path d="M-121.42976006492972,-74.22047878615558L-112.42640929296613,512.7321888785809L-52.281241631135345,166.69441172853112Z" fill="#e6faff" stroke="#e6faff" fill-opacity="1" stroke-opacity="1"/><path d="M-121.42976006492972,-74.22047878615558L-52.281241631135345,166.69441172853112L-32.22491464577615,123.02613599225879Z" fill="#f8fdff" stroke="#f8fdff" fill-opacity="1" stroke-opacity="1"/><path d="M-121.42976006492972,-74.22047878615558L-32.22491464577615,123.02613599225879L18.801072584465146,-50.91421262361109Z" fill="#fbfcff" stroke="#fbfcff" fill-opacity="1" stroke-opacity="1"/><path d="M-121.42976006492972,-74.22047878615558L18.801072584465146,-50.91421262361109L183.93440047279,-106.91864378750324Z" fill="#f5f8fe" stroke="#f5f8fe" fill-opacity="1" stroke-opacity="1"/><path d="M18.801072584465146,-50.91421262361109L-32.22491464577615,123.02613599225879L102.69630432128906,130.41184396483004Z" fill="#f0f8fe" stroke="#f0f8fe" fill-opacity="1" stroke-opacity="1"/><path d="M18.801072584465146,-50.91421262361109L102.69630432128906,130.41184396483004L221.5419825632125,23.388115502893925Z" fill="#ebf3fb" stroke="#ebf3fb" fill-opacity="1" stroke-opacity="1"/><path d="M18.801072584465146,-50.91421262361109L221.5419825632125,23.388115502893925L183.93440047279,-106.91864378750324Z" fill="#ebf2fa" stroke="#ebf2fa" fill-opacity="1" stroke-opacity="1"/><path d="M183.93440047279,-106.91864378750324L221.5419825632125,23.388115502893925L325.39158252999187,-88.12568390741944Z" fill="#e2edf7" stroke="#e2edf7" fill-opacity="1" stroke-opacity="1"/><path d="M183.93440047279,-106.91864378750324L325.39158252999187,-88.12568390741944L1084.2031540721655,-121.76098247990012Z" fill="#c8e1ef" stroke="#c8e1ef" fill-opacity="1" stroke-opacity="1"/><path d="M325.39158252999187,-88.12568390741944L221.5419825632125,23.388115502893925L365.81379214301705,94.22788381576538Z" fill="#dcebf5" stroke="#dcebf5" fill-opacity="1" stroke-opacity="1"/><path d="M325.39158252999187,-88.12568390741944L365.81379214301705,94.22788381576538L541.3128917757422,-56.92656207829714Z" fill="#d4e7f2" stroke="#d4e7f2" fill-opacity="1" stroke-opacity="1"/><path d="M325.39158252999187,-88.12568390741944L541.3128917757422,-56.92656207829714L786.0308463871479,-69.33273584581912Z" fill="#c6e0ee" stroke="#c6e0ee" fill-opacity="1" stroke-opacity="1"/><path d="M325.39158252999187,-88.12568390741944L786.0308463871479,-69.33273584581912L976.0432849824429,-98.59830284491181Z" fill="#b7d7eb" stroke="#b7d7eb" fill-opacity="1" stroke-opacity="1"/><path d="M325.39158252999187,-88.12568390741944L976.0432849824429,-98.59830284491181L1084.2031540721655,-121.76098247990012Z" fill="#abcfe6" stroke="#abcfe6" fill-opacity="1" stroke-opacity="1"/><path d="M541.3128917757422,-56.92656207829714L365.81379214301705,94.22788381576538L497.2225875221193,92.69117678515613Z" fill="#cce5f0" stroke="#cce5f0" fill-opacity="1" stroke-opacity="1"/><path d="M541.3128917757422,-56.92656207829714L497.2225875221193,92.69117678515613L650.0525606330484,99.66388117522001Z" fill="#c1dfee" stroke="#c1dfee" fill-opacity="1" stroke-opacity="1"/><path d="M541.3128917757422,-56.92656207829714L650.0525606330484,99.66388117522001L695.2486854046583,-25.132320960983634Z" fill="#bddbed" stroke="#bddbed" fill-opacity="1" stroke-opacity="1"/><path d="M541.3128917757422,-56.92656207829714L695.2486854046583,-25.132320960983634L786.0308463871479,-69.33273584581912Z" fill="#b9d9ec" stroke="#b9d9ec" fill-opacity="1" stroke-opacity="1"/><path d="M695.2486854046583,-25.132320960983634L650.0525606330484,99.66388117522001L772.1888339146972,118.0996857304126Z" fill="#b0d7eb" stroke="#b0d7eb" fill-opacity="1" stroke-opacity="1"/><path d="M695.2486854046583,-25.132320960983634L772.1888339146972,118.0996857304126L786.0308463871479,-69.33273584581912Z" fill="#afd3e8" stroke="#afd3e8" fill-opacity="1" stroke-opacity="1"/><path d="M786.0308463871479,-69.33273584581912L772.1888339146972,118.0996857304126L971.7056596186012,117.79404857195914Z" fill="#a0cae4" stroke="#a0cae4" fill-opacity="1" stroke-opacity="1"/><path d="M786.0308463871479,-69.33273584581912L971.7056596186012,117.79404857195914L976.0432849824429,-98.59830284491181Z" fill="#9cc4e0" stroke="#9cc4e0" fill-opacity="1" stroke-opacity="1"/><path d="M976.0432849824429,-98.59830284491181L971.7056596186012,117.79404857195914L1067.880411632359,114.4523058179766Z" fill="#8fbada" stroke="#8fbada" fill-opacity="1" stroke-opacity="1"/><path d="M976.0432849824429,-98.59830284491181L1067.880411632359,114.4523058179766L1084.2031540721655,-121.76098247990012Z" fill="#90b7d7" stroke="#90b7d7" fill-opacity="1" stroke-opacity="1"/><path d="M1084.2031540721655,-121.76098247990012L1067.880411632359,114.4523058179766L1220.450614783913,16.303807720541954Z" fill="#89aed2" stroke="#89aed2" fill-opacity="1" stroke-opacity="1"/><path d="M1084.2031540721655,-121.76098247990012L1220.450614783913,16.303807720541954L1327.9291403945535,-109.43647907115519Z" fill="#81a5cc" stroke="#81a5cc" fill-opacity="1" stroke-opacity="1"/><path d="M1084.2031540721655,-121.76098247990012L1327.9291403945535,-109.43647907115519L1547.9813706781715,-102.70958561450243Z" fill="#809ac4" stroke="#809ac4" fill-opacity="1" stroke-opacity="1"/><path d="M1327.9291403945535,-109.43647907115519L1220.450614783913,16.303807720541954L1429.2306152544916,85.33549066632986Z" fill="#8099c4" stroke="#8099c4" fill-opacity="1" stroke-opacity="1"/><path d="M1327.9291403945535,-109.43647907115519L1429.2306152544916,85.33549066632986L1475.664485162124,-94.61132646538317Z" fill="#8090be" stroke="#8090be" fill-opacity="1" stroke-opacity="1"/><path d="M1327.9291403945535,-109.43647907115519L1475.664485162124,-94.61132646538317L1547.9813706781715,-102.70958561450243Z" fill="#808cbb" stroke="#808cbb" fill-opacity="1" stroke-opacity="1"/><path d="M1475.664485162124,-94.61132646538317L1429.2306152544916,85.33549066632986L1554.7282059397548,78.08783115819097Z" fill="#7e88b8" stroke="#7e88b8" fill-opacity="1" stroke-opacity="1"/><path d="M1475.664485162124,-94.61132646538317L1554.7282059397548,78.08783115819097L1547.9813706781715,-102.70958561450243Z" fill="#8084b6" stroke="#8084b6" fill-opacity="1" stroke-opacity="1"/><path d="M1547.9813706781715,-102.70958561450243L1554.7282059397548,78.08783115819097L1580.415207836777,339.66785453259945Z" fill="#7881b3" stroke="#7881b3" fill-opacity="1" stroke-opacity="1"/><path d="M1547.9813706781715,-102.70958561450243L1580.415207836777,339.66785453259945L1602.5802805647254,505.02337127923965Z" fill="#5e78b2" stroke="#5e78b2" fill-opacity="1" stroke-opacity="1"/><path d="M-32.22491464577615,123.02613599225879L-52.281241631135345,166.69441172853112L27.512488374486566,189.87951457500458Z" fill="#e8f8ff" stroke="#e8f8ff" fill-opacity="1" stroke-opacity="1"/><path d="M-32.22491464577615,123.02613599225879L27.512488374486566,189.87951457500458L102.69630432128906,130.41184396483004Z" fill="#e6f6fe" stroke="#e6f6fe" fill-opacity="1" stroke-opacity="1"/><path d="M102.69630432128906,130.41184396483004L27.512488374486566,189.87951457500458L214.05058317817748,187.94060577638447Z" fill="#dbf1fb" stroke="#dbf1fb" fill-opacity="1" stroke-opacity="1"/><path d="M102.69630432128906,130.41184396483004L214.05058317817748,187.94060577638447L221.5419825632125,23.388115502893925Z" fill="#dff0f9" stroke="#dff0f9" fill-opacity="1" stroke-opacity="1"/><path d="M221.5419825632125,23.388115502893925L214.05058317817748,187.94060577638447L365.81379214301705,94.22788381576538Z" fill="#d8ecf6" stroke="#d8ecf6" fill-opacity="1" stroke-opacity="1"/><path d="M365.81379214301705,94.22788381576538L214.05058317817748,187.94060577638447L341.3033286295831,207.95390082523227Z" fill="#cbe8f5" stroke="#cbe8f5" fill-opacity="1" stroke-opacity="1"/><path d="M365.81379214301705,94.22788381576538L341.3033286295831,207.95390082523227L497.2225875221193,92.69117678515613Z" fill="#c9e7f2" stroke="#c9e7f2" fill-opacity="1" stroke-opacity="1"/><path d="M497.2225875221193,92.69117678515613L341.3033286295831,207.95390082523227L550.3256546147168,166.49968405254185Z" fill="#c0e3f1" stroke="#c0e3f1" fill-opacity="1" stroke-opacity="1"/><path d="M497.2225875221193,92.69117678515613L550.3256546147168,166.49968405254185L650.0525606330484,99.66388117522001Z" fill="#bbdfee" stroke="#bbdfee" fill-opacity="1" stroke-opacity="1"/><path d="M650.0525606330484,99.66388117522001L550.3256546147168,166.49968405254185L681.6008124500513,211.15815052762628Z" fill="#addaed" stroke="#addaed" fill-opacity="1" stroke-opacity="1"/><path d="M650.0525606330484,99.66388117522001L681.6008124500513,211.15815052762628L772.1888339146972,118.0996857304126Z" fill="#a8d6eb" stroke="#a8d6eb" fill-opacity="1" stroke-opacity="1"/><path d="M772.1888339146972,118.0996857304126L681.6008124500513,211.15815052762628L854.5703977905214,205.03656107001007Z" fill="#99cee7" stroke="#99cee7" fill-opacity="1" stroke-opacity="1"/><path d="M772.1888339146972,118.0996857304126L854.5703977905214,205.03656107001007L971.7056596186012,117.79404857195914Z" fill="#93c7e2" stroke="#93c7e2" fill-opacity="1" stroke-opacity="1"/><path d="M971.7056596186012,117.79404857195914L854.5703977905214,205.03656107001007L997.998659927398,239.47393692098558Z" fill="#83bdde" stroke="#83bdde" fill-opacity="1" stroke-opacity="1"/><path d="M971.7056596186012,117.79404857195914L997.998659927398,239.47393692098558L1067.880411632359,114.4523058179766Z" fill="#82b8d9" stroke="#82b8d9" fill-opacity="1" stroke-opacity="1"/><path d="M1067.880411632359,114.4523058179766L997.998659927398,239.47393692098558L1126.9902468658984,222.09042811766267Z" fill="#77b0d6" stroke="#77b0d6" fill-opacity="1" stroke-opacity="1"/><path d="M1067.880411632359,114.4523058179766L1126.9902468658984,222.09042811766267L1220.450614783913,16.303807720541954Z" fill="#7eadd1" stroke="#7eadd1" fill-opacity="1" stroke-opacity="1"/><path d="M1220.450614783913,16.303807720541954L1126.9902468658984,222.09042811766267L1252.6939367316663,251.599345151335Z" fill="#71a4cc" stroke="#71a4cc" fill-opacity="1" stroke-opacity="1"/><path d="M1220.450614783913,16.303807720541954L1252.6939367316663,251.599345151335L1429.2306152544916,85.33549066632986Z" fill="#779cc5" stroke="#779cc5" fill-opacity="1" stroke-opacity="1"/><path d="M1429.2306152544916,85.33549066632986L1252.6939367316663,251.599345151335L1458.9426996186376,196.07549199834466Z" fill="#6b90c0" stroke="#6b90c0" fill-opacity="1" stroke-opacity="1"/><path d="M1429.2306152544916,85.33549066632986L1458.9426996186376,196.07549199834466L1554.7282059397548,78.08783115819097Z" fill="#7689b9" stroke="#7689b9" fill-opacity="1" stroke-opacity="1"/><path d="M1554.7282059397548,78.08783115819097L1458.9426996186376,196.07549199834466L1531.5454529318959,227.94588253833354Z" fill="#6d83b6" stroke="#6d83b6" fill-opacity="1" stroke-opacity="1"/><path d="M1554.7282059397548,78.08783115819097L1531.5454529318959,227.94588253833354L1580.415207836777,339.66785453259945Z" fill="#647cb3" stroke="#647cb3" fill-opacity="1" stroke-opacity="1"/><path d="M-52.281241631135345,166.69441172853112L-112.42640929296613,512.7321888785809L-28.53535959497094,411.18153230287135Z" fill="#bee5ff" stroke="#bee5ff" fill-opacity="1" stroke-opacity="1"/><path d="M-52.281241631135345,166.69441172853112L-28.53535959497094,411.18153230287135L18.344379868358374,357.7016142010689Z" fill="#c7eaff" stroke="#c7eaff" fill-opacity="1" stroke-opacity="1"/><path d="M-52.281241631135345,166.69441172853112L18.344379868358374,357.7016142010689L27.512488374486566,189.87951457500458Z" fill="#d7f3ff" stroke="#d7f3ff" fill-opacity="1" stroke-opacity="1"/><path d="M27.512488374486566,189.87951457500458L18.344379868358374,357.7016142010689L186.60211304202676,361.1057417001575Z" fill="#c1e6fd" stroke="#c1e6fd" fill-opacity="1" stroke-opacity="1"/><path d="M27.512488374486566,189.87951457500458L186.60211304202676,361.1057417001575L214.05058317817748,187.94060577638447Z" fill="#c9ebfa" stroke="#c9ebfa" fill-opacity="1" stroke-opacity="1"/><path d="M214.05058317817748,187.94060577638447L186.60211304202676,361.1057417001575L341.3033286295831,207.95390082523227Z" fill="#bee5f7" stroke="#bee5f7" fill-opacity="1" stroke-opacity="1"/><path d="M341.3033286295831,207.95390082523227L186.60211304202676,361.1057417001575L381.71781406737864,354.9609652161598Z" fill="#acdbf5" stroke="#acdbf5" fill-opacity="1" stroke-opacity="1"/><path d="M341.3033286295831,207.95390082523227L381.71781406737864,354.9609652161598L489.812719412148,367.18568209558725Z" fill="#a3d7f2" stroke="#a3d7f2" fill-opacity="1" stroke-opacity="1"/><path d="M341.3033286295831,207.95390082523227L489.812719412148,367.18568209558725L550.3256546147168,166.49968405254185Z" fill="#aedef1" stroke="#aedef1" fill-opacity="1" stroke-opacity="1"/><path d="M550.3256546147168,166.49968405254185L489.812719412148,367.18568209558725L681.6008124500513,211.15815052762628Z" fill="#a1d7ee" stroke="#a1d7ee" fill-opacity="1" stroke-opacity="1"/><path d="M681.6008124500513,211.15815052762628L489.812719412148,367.18568209558725L679.494386119768,417.5982645805925Z" fill="#88c9ed" stroke="#88c9ed" fill-opacity="1" stroke-opacity="1"/><path d="M681.6008124500513,211.15815052762628L679.494386119768,417.5982645805925L789.9545249249786,320.9825632441789Z" fill="#81c5ea" stroke="#81c5ea" fill-opacity="1" stroke-opacity="1"/><path d="M681.6008124500513,211.15815052762628L789.9545249249786,320.9825632441789L854.5703977905214,205.03656107001007Z" fill="#8bc9e7" stroke="#8bc9e7" fill-opacity="1" stroke-opacity="1"/><path d="M854.5703977905214,205.03656107001007L789.9545249249786,320.9825632441789L997.998659927398,239.47393692098558Z" fill="#7cbee2" stroke="#7cbee2" fill-opacity="1" stroke-opacity="1"/><path d="M997.998659927398,239.47393692098558L789.9545249249786,320.9825632441789L1032.0617523696274,375.19243790768087Z" fill="#67b1de" stroke="#67b1de" fill-opacity="1" stroke-opacity="1"/><path d="M997.998659927398,239.47393692098558L1032.0617523696274,375.19243790768087L1070.8193760272115,344.04907101765275Z" fill="#5ca6d8" stroke="#5ca6d8" fill-opacity="1" stroke-opacity="1"/><path d="M997.998659927398,239.47393692098558L1070.8193760272115,344.04907101765275L1126.9902468658984,222.09042811766267Z" fill="#66aad6" stroke="#66aad6" fill-opacity="1" stroke-opacity="1"/><path d="M1126.9902468658984,222.09042811766267L1070.8193760272115,344.04907101765275L1248.0155474692583,346.38689529150724Z" fill="#569dd0" stroke="#569dd0" fill-opacity="1" stroke-opacity="1"/><path d="M1126.9902468658984,222.09042811766267L1248.0155474692583,346.38689529150724L1252.6939367316663,251.599345151335Z" fill="#599acc" stroke="#599acc" fill-opacity="1" stroke-opacity="1"/><path d="M1252.6939367316663,251.599345151335L1248.0155474692583,346.38689529150724L1412.565080942586,411.1590847559273Z" fill="#4788c5" stroke="#4788c5" fill-opacity="1" stroke-opacity="1"/><path d="M1252.6939367316663,251.599345151335L1412.565080942586,411.1590847559273L1458.9426996186376,196.07549199834466Z" fill="#5488c0" stroke="#5488c0" fill-opacity="1" stroke-opacity="1"/><path d="M1458.9426996186376,196.07549199834466L1412.565080942586,411.1590847559273L1531.5454529318959,227.94588253833354Z" fill="#567fba" stroke="#567fba" fill-opacity="1" stroke-opacity="1"/><path d="M1531.5454529318959,227.94588253833354L1412.565080942586,411.1590847559273L1580.415207836777,339.66785453259945Z" fill="#4a74b7" stroke="#4a74b7" fill-opacity="1" stroke-opacity="1"/><path d="M-28.53535959497094,411.18153230287135L-112.42640929296613,512.7321888785809L66.91645922139287,537.4326621741056Z" fill="#98c9f1" stroke="#98c9f1" fill-opacity="1" stroke-opacity="1"/><path d="M-28.53535959497094,411.18153230287135L66.91645922139287,537.4326621741056L18.344379868358374,357.7016142010689Z" fill="#a3d2f6" stroke="#a3d2f6" fill-opacity="1" stroke-opacity="1"/><path d="M18.344379868358374,357.7016142010689L66.91645922139287,537.4326621741056L186.60211304202676,361.1057417001575Z" fill="#a1d2f6" stroke="#a1d2f6" fill-opacity="1" stroke-opacity="1"/><path d="M186.60211304202676,361.1057417001575L66.91645922139287,537.4326621741056L231.69113885611296,523.878331258893Z" fill="#8bc3ed" stroke="#8bc3ed" fill-opacity="1" stroke-opacity="1"/><path d="M186.60211304202676,361.1057417001575L231.69113885611296,523.878331258893L381.71781406737864,354.9609652161598Z" fill="#93cbf1" stroke="#93cbf1" fill-opacity="1" stroke-opacity="1"/><path d="M381.71781406737864,354.9609652161598L231.69113885611296,523.878331258893L403.3129961695522,562.3452783934772Z" fill="#7abae6" stroke="#7abae6" fill-opacity="1" stroke-opacity="1"/><path d="M381.71781406737864,354.9609652161598L403.3129961695522,562.3452783934772L489.812719412148,367.18568209558725Z" fill="#82c1ea" stroke="#82c1ea" fill-opacity="1" stroke-opacity="1"/><path d="M489.812719412148,367.18568209558725L403.3129961695522,562.3452783934772L503.12008243985474,558.7385151721537Z" fill="#6cb1e0" stroke="#6cb1e0" fill-opacity="1" stroke-opacity="1"/><path d="M489.812719412148,367.18568209558725L503.12008243985474,558.7385151721537L679.494386119768,417.5982645805925Z" fill="#6fb7e4" stroke="#6fb7e4" fill-opacity="1" stroke-opacity="1"/><path d="M679.494386119768,417.5982645805925L503.12008243985474,558.7385151721537L725.1666034944355,543.5861138440669Z" fill="#59a5db" stroke="#59a5db" fill-opacity="1" stroke-opacity="1"/><path d="M679.494386119768,417.5982645805925L725.1666034944355,543.5861138440669L789.9545249249786,320.9825632441789Z" fill="#61b0e2" stroke="#61b0e2" fill-opacity="1" stroke-opacity="1"/><path d="M789.9545249249786,320.9825632441789L725.1666034944355,543.5861138440669L863.1689875759184,556.8962009064853Z" fill="#4da0d9" stroke="#4da0d9" fill-opacity="1" stroke-opacity="1"/><path d="M789.9545249249786,320.9825632441789L863.1689875759184,556.8962009064853L982.294136043638,497.2712194081396Z" fill="#479bd7" stroke="#479bd7" fill-opacity="1" stroke-opacity="1"/><path d="M789.9545249249786,320.9825632441789L982.294136043638,497.2712194081396L1032.0617523696274,375.19243790768087Z" fill="#51a3db" stroke="#51a3db" fill-opacity="1" stroke-opacity="1"/><path d="M1032.0617523696274,375.19243790768087L982.294136043638,497.2712194081396L1082.7528813108802,497.6691194716841Z" fill="#388dcd" stroke="#388dcd" fill-opacity="1" stroke-opacity="1"/><path d="M1032.0617523696274,375.19243790768087L1082.7528813108802,497.6691194716841L1070.8193760272115,344.04907101765275Z" fill="#4495d2" stroke="#4495d2" fill-opacity="1" stroke-opacity="1"/><path d="M1070.8193760272115,344.04907101765275L1082.7528813108802,497.6691194716841L1248.0155474692583,346.38689529150724Z" fill="#408fcd" stroke="#408fcd" fill-opacity="1" stroke-opacity="1"/><path d="M1248.0155474692583,346.38689529150724L1082.7528813108802,497.6691194716841L1279.5134084858,536.7446838039905Z" fill="#287ac1" stroke="#287ac1" fill-opacity="1" stroke-opacity="1"/><path d="M1248.0155474692583,346.38689529150724L1279.5134084858,536.7446838039905L1412.565080942586,411.1590847559273Z" fill="#2e75bc" stroke="#2e75bc" fill-opacity="1" stroke-opacity="1"/><path d="M1412.565080942586,411.1590847559273L1279.5134084858,536.7446838039905L1368.1294667813927,546.2007252406329Z" fill="#1c62b1" stroke="#1c62b1" fill-opacity="1" stroke-opacity="1"/><path d="M1412.565080942586,411.1590847559273L1368.1294667813927,546.2007252406329L1602.5802805647254,505.02337127923965Z" fill="#1e5aac" stroke="#1e5aac" fill-opacity="1" stroke-opacity="1"/><path d="M1412.565080942586,411.1590847559273L1602.5802805647254,505.02337127923965L1580.415207836777,339.66785453259945Z" fill="#3161af" stroke="#3161af" fill-opacity="1" stroke-opacity="1"/><path d="M-112.42640929296613,512.7321888785809L-43.775546019896865,778.1177205685526L-46.7679004278034,674.8988528642803Z" fill="#8ba3d6" stroke="#8ba3d6" fill-opacity="1" stroke-opacity="1"/><path d="M-112.42640929296613,512.7321888785809L-46.7679004278034,674.8988528642803L66.91645922139287,537.4326621741056Z" fill="#8fb4e3" stroke="#8fb4e3" fill-opacity="1" stroke-opacity="1"/><path d="M66.91645922139287,537.4326621741056L-46.7679004278034,674.8988528642803L25.90444869361818,679.2268930748105Z" fill="#86a4d9" stroke="#86a4d9" fill-opacity="1" stroke-opacity="1"/><path d="M66.91645922139287,537.4326621741056L25.90444869361818,679.2268930748105L171.09533582814038,624.0016982797533Z" fill="#82a5da" stroke="#82a5da" fill-opacity="1" stroke-opacity="1"/><path d="M66.91645922139287,537.4326621741056L171.09533582814038,624.0016982797533L231.69113885611296,523.878331258893Z" fill="#81aedf" stroke="#81aedf" fill-opacity="1" stroke-opacity="1"/><path d="M231.69113885611296,523.878331258893L171.09533582814038,624.0016982797533L400.46733803115785,663.3662411011755Z" fill="#739fd5" stroke="#739fd5" fill-opacity="1" stroke-opacity="1"/><path d="M231.69113885611296,523.878331258893L400.46733803115785,663.3662411011755L403.3129961695522,562.3452783934772Z" fill="#6ea1d6" stroke="#6ea1d6" fill-opacity="1" stroke-opacity="1"/><path d="M403.3129961695522,562.3452783934772L400.46733803115785,663.3662411011755L503.12008243985474,558.7385151721537Z" fill="#659bd2" stroke="#659bd2" fill-opacity="1" stroke-opacity="1"/><path d="M503.12008243985474,558.7385151721537L400.46733803115785,663.3662411011755L471.2199496664107,734.7837590239942Z" fill="#5e8cc8" stroke="#5e8cc8" fill-opacity="1" stroke-opacity="1"/><path d="M503.12008243985474,558.7385151721537L471.2199496664107,734.7837590239942L715.1285201590508,639.3657206185162Z" fill="#5488c7" stroke="#5488c7" fill-opacity="1" stroke-opacity="1"/><path d="M503.12008243985474,558.7385151721537L715.1285201590508,639.3657206185162L725.1666034944355,543.5861138440669Z" fill="#5192cf" stroke="#5192cf" fill-opacity="1" stroke-opacity="1"/><path d="M725.1666034944355,543.5861138440669L715.1285201590508,639.3657206185162L863.1689875759184,556.8962009064853Z" fill="#438aca" stroke="#438aca" fill-opacity="1" stroke-opacity="1"/><path d="M863.1689875759184,556.8962009064853L715.1285201590508,639.3657206185162L796.5409293305129,710.6975828111172Z" fill="#3b7ac0" stroke="#3b7ac0" fill-opacity="1" stroke-opacity="1"/><path d="M863.1689875759184,556.8962009064853L796.5409293305129,710.6975828111172L944.3142711091787,724.6103410888463Z" fill="#2f6cb8" stroke="#2f6cb8" fill-opacity="1" stroke-opacity="1"/><path d="M863.1689875759184,556.8962009064853L944.3142711091787,724.6103410888463L982.294136043638,497.2712194081396Z" fill="#2e77bf" stroke="#2e77bf" fill-opacity="1" stroke-opacity="1"/><path d="M982.294136043638,497.2712194081396L944.3142711091787,724.6103410888463L1154.1295519005507,649.1428936924785Z" fill="#2266b4" stroke="#2266b4" fill-opacity="1" stroke-opacity="1"/><path d="M982.294136043638,497.2712194081396L1154.1295519005507,649.1428936924785L1082.7528813108802,497.6691194716841Z" fill="#2573bd" stroke="#2573bd" fill-opacity="1" stroke-opacity="1"/><path d="M1082.7528813108802,497.6691194716841L1154.1295519005507,649.1428936924785L1279.5134084858,536.7446838039905Z" fill="#1b66b4" stroke="#1b66b4" fill-opacity="1" stroke-opacity="1"/><path d="M1279.5134084858,536.7446838039905L1154.1295519005507,649.1428936924785L1233.7980793509632,673.2011218182743Z" fill="#1253a7" stroke="#1253a7" fill-opacity="1" stroke-opacity="1"/><path d="M1279.5134084858,536.7446838039905L1233.7980793509632,673.2011218182743L1368.1294667813927,546.2007252406329Z" fill="#1453a8" stroke="#1453a8" fill-opacity="1" stroke-opacity="1"/><path d="M1368.1294667813927,546.2007252406329L1233.7980793509632,673.2011218182743L1420.1804808340967,674.0440813824534Z" fill="#10449d" stroke="#10449d" fill-opacity="1" stroke-opacity="1"/><path d="M1368.1294667813927,546.2007252406329L1420.1804808340967,674.0440813824534L1602.5802805647254,505.02337127923965Z" fill="#15449d" stroke="#15449d" fill-opacity="1" stroke-opacity="1"/><path d="M1602.5802805647254,505.02337127923965L1420.1804808340967,674.0440813824534L1611.4005623292178,660.1857412979007Z" fill="#123392" stroke="#123392" fill-opacity="1" stroke-opacity="1"/><path d="M-46.7679004278034,674.8988528642803L-43.775546019896865,778.1177205685526L25.90444869361818,679.2268930748105Z" fill="#8293cd" stroke="#8293cd" fill-opacity="1" stroke-opacity="1"/><path d="M25.90444869361818,679.2268930748105L-43.775546019896865,778.1177205685526L99.72593846730888,823.6757661681622Z" fill="#7985c4" stroke="#7985c4" fill-opacity="1" stroke-opacity="1"/><path d="M25.90444869361818,679.2268930748105L99.72593846730888,823.6757661681622L171.09533582814038,624.0016982797533Z" fill="#788eca" stroke="#788eca" fill-opacity="1" stroke-opacity="1"/><path d="M171.09533582814038,624.0016982797533L99.72593846730888,823.6757661681622L264.40625516697764,789.5349754672498Z" fill="#6d81c2" stroke="#6d81c2" fill-opacity="1" stroke-opacity="1"/><path d="M171.09533582814038,624.0016982797533L264.40625516697764,789.5349754672498L400.46733803115785,663.3662411011755Z" fill="#6a89c7" stroke="#6a89c7" fill-opacity="1" stroke-opacity="1"/><path d="M400.46733803115785,663.3662411011755L264.40625516697764,789.5349754672498L338.0131254158914,802.8240900859237Z" fill="#5f79bc" stroke="#5f79bc" fill-opacity="1" stroke-opacity="1"/><path d="M400.46733803115785,663.3662411011755L338.0131254158914,802.8240900859237L471.2199496664107,734.7837590239942Z" fill="#5b7bbc" stroke="#5b7bbc" fill-opacity="1" stroke-opacity="1"/><path d="M471.2199496664107,734.7837590239942L338.0131254158914,802.8240900859237L517.6757892686874,800.0966663751751Z" fill="#546eb4" stroke="#546eb4" fill-opacity="1" stroke-opacity="1"/><path d="M471.2199496664107,734.7837590239942L517.6757892686874,800.0966663751751L715.1285201590508,639.3657206185162Z" fill="#4c75ba" stroke="#4c75ba" fill-opacity="1" stroke-opacity="1"/><path d="M715.1285201590508,639.3657206185162L517.6757892686874,800.0966663751751L655.7014647033066,858.378046117723Z" fill="#4167b2" stroke="#4167b2" fill-opacity="1" stroke-opacity="1"/><path d="M715.1285201590508,639.3657206185162L655.7014647033066,858.378046117723L796.5409293305129,710.6975828111172Z" fill="#3a68b4" stroke="#3a68b4" fill-opacity="1" stroke-opacity="1"/><path d="M796.5409293305129,710.6975828111172L655.7014647033066,858.378046117723L884.4894419051707,816.0130348429084Z" fill="#2e55a7" stroke="#2e55a7" fill-opacity="1" stroke-opacity="1"/><path d="M796.5409293305129,710.6975828111172L884.4894419051707,816.0130348429084L944.3142711091787,724.6103410888463Z" fill="#2657a9" stroke="#2657a9" fill-opacity="1" stroke-opacity="1"/><path d="M944.3142711091787,724.6103410888463L884.4894419051707,816.0130348429084L918.7624774407595,863.726966176182Z" fill="#1c469f" stroke="#1c469f" fill-opacity="1" stroke-opacity="1"/><path d="M944.3142711091787,724.6103410888463L918.7624774407595,863.726966176182L1140.9859914332628,868.3946079667658Z" fill="#143b97" stroke="#143b97" fill-opacity="1" stroke-opacity="1"/><path d="M944.3142711091787,724.6103410888463L1140.9859914332628,868.3946079667658L1154.1295519005507,649.1428936924785Z" fill="#12439d" stroke="#12439d" fill-opacity="1" stroke-opacity="1"/><path d="M1154.1295519005507,649.1428936924785L1140.9859914332628,868.3946079667658L1233.7980793509632,673.2011218182743Z" fill="#0b3d99" stroke="#0b3d99" fill-opacity="1" stroke-opacity="1"/><path d="M1233.7980793509632,673.2011218182743L1140.9859914332628,868.3946079667658L1277.7648634370416,823.2527671102434Z" fill="#022a8d" stroke="#022a8d" fill-opacity="1" stroke-opacity="1"/><path d="M1233.7980793509632,673.2011218182743L1277.7648634370416,823.2527671102434L1420.1804808340967,674.0440813824534Z" fill="#073191" stroke="#073191" fill-opacity="1" stroke-opacity="1"/><path d="M1420.1804808340967,674.0440813824534L1277.7648634370416,823.2527671102434L1409.2875728476793,857.2869024798274Z" fill="#021c83" stroke="#021c83" fill-opacity="1" stroke-opacity="1"/><path d="M1420.1804808340967,674.0440813824534L1409.2875728476793,857.2869024798274L1614.008614467457,824.8745058942586Z" fill="#02107b" stroke="#02107b" fill-opacity="1" stroke-opacity="1"/><path d="M1420.1804808340967,674.0440813824534L1614.008614467457,824.8745058942586L1611.4005623292178,660.1857412979007Z" fill="#081880" stroke="#081880" fill-opacity="1" stroke-opacity="1"/><path d="M99.72593846730888,823.6757661681622L655.7014647033066,858.378046117723L338.0131254158914,802.8240900859237Z" fill="#5869ae" stroke="#5869ae" fill-opacity="1" stroke-opacity="1"/><path d="M99.72593846730888,823.6757661681622L338.0131254158914,802.8240900859237L264.40625516697764,789.5349754672498Z" fill="#636fb6" stroke="#636fb6" fill-opacity="1" stroke-opacity="1"/><path d="M338.0131254158914,802.8240900859237L655.7014647033066,858.378046117723L517.6757892686874,800.0966663751751Z" fill="#4c63ac" stroke="#4c63ac" fill-opacity="1" stroke-opacity="1"/><path d="M655.7014647033066,858.378046117723L1140.9859914332628,868.3946079667658L918.7624774407595,863.726966176182Z" fill="#1e4596" stroke="#1e4596" fill-opacity="1" stroke-opacity="1"/><path d="M655.7014647033066,858.378046117723L918.7624774407595,863.726966176182L884.4894419051707,816.0130348429084Z" fill="#284d9d" stroke="#284d9d" fill-opacity="1" stroke-opacity="1"/><path d="M1140.9859914332628,868.3946079667658L1409.2875728476793,857.2869024798274L1277.7648634370416,823.2527671102434Z" fill="#001f7f" stroke="#001f7f" fill-opacity="1" stroke-opacity="1"/></g></svg>